<svg xmlns="http://www.w3.org/2000/svg" width="960" height="540" viewBox="0 0 960 540" role="img" aria-label="AI learning dashboard illustration">
  <rect width="960" height="540" rx="36" fill="#e7fbf4"/>
  <circle cx="760" cy="102" r="76" fill="#18b6d8" opacity=".18"/>
  <circle cx="182" cy="412" r="110" fill="#13b981" opacity=".16"/>
  <rect x="116" y="96" width="728" height="348" rx="30" fill="#ffffff" stroke="#b8c9dc" stroke-width="4"/>
  <rect x="156" y="138" width="252" height="42" rx="16" fill="#101828"/>
  <rect x="156" y="206" width="516" height="22" rx="11" fill="#dbe7f3"/>
  <rect x="156" y="250" width="430" height="22" rx="11" fill="#dbe7f3"/>
  <rect x="156" y="316" width="182" height="58" rx="18" fill="#13b981"/>
  <rect x="370" y="316" width="182" height="58" rx="18" fill="#18b6d8"/>
  <path d="M681 173c48 0 87 39 87 87s-39 87-87 87-87-39-87-87 39-87 87-87Z" fill="#f8bd3b" opacity=".92"/>
  <path d="M681 205v110M626 260h110" stroke="#101828" stroke-width="20" stroke-linecap="round"/>
</svg>
